<svg width="18" height="18" viewBox="0 0 18 18" fill="none" xmlns="http://www.w3.org/2000/svg">
<path d="M16.6505 4.17036C13.9622 -0.00170634 8.45684 -1.23787 4.19921 1.35035C0.0444816 3.93858 -1.29326 9.5786 1.39509 13.7378L1.61376 14.0726L0.713354 17.4463L4.08344 16.5449L4.41788 16.7638C5.87139 17.5493 7.45353 18 9.02281 18C10.7079 18 12.3929 17.5493 13.8464 16.6479C18.0011 13.9438 19.236 8.41969 16.6505 4.14461V4.17036ZM14.2966 12.8493C13.8464 13.5189 13.2804 13.9696 12.4958 14.0855C12.0456 14.0855 11.4796 14.3044 9.24148 13.4159C7.33777 12.5145 5.75562 11.0466 4.63655 9.3597C3.96768 8.57422 3.62038 7.55695 3.51747 6.53969C3.51747 5.63831 3.85191 4.85283 4.41788 4.28625C4.63655 4.06735 4.86808 3.95146 5.08675 3.95146H5.65272C5.87139 3.95146 6.10292 3.95146 6.21869 4.40215C6.43736 4.96872 7.00333 6.32078 7.00333 6.43667C7.1191 6.55256 7.06764 7.41531 6.55313 7.90462C6.27014 8.22654 6.21869 8.23942 6.33446 8.4712C6.78466 9.14079 7.35063 9.82326 7.90374 10.3898C8.57261 10.9564 9.25434 11.4071 10.039 11.7419C10.2577 11.8578 10.4892 11.8578 10.605 11.626C10.7207 11.4071 11.2738 10.8405 11.5054 10.6087C11.724 10.3898 11.8398 10.3898 12.0713 10.4929L13.8721 11.3942C14.0908 11.5101 14.3223 11.6131 14.4381 11.729C14.5539 12.0638 14.5539 12.5145 14.3223 12.8493H14.2966Z" fill="white"/>
</svg>
